<?xml version="1.0" encoding="utf-8"?>
<!-- Generator: Adobe Illustrator 21.0.0, SVG Export Plug-In . SVG Version: 6.00 Build 0)  -->
<svg version="1.1" id="Layer_3" xmlns="http://www.w3.org/2000/svg" xmlns:xlink="http://www.w3.org/1999/xlink" x="0px" y="0px"
	 viewBox="0 0 205.5 42" style="enable-background:new 0 0 205.5 42;" xml:space="preserve">
<style type="text/css">
	.st0{enable-background:new    ;}
	.st1{fill:#FFFFFF;}
</style>
<title>logo</title>
<g class="st0">
	<path class="st1" d="M4.7,33.2C3.4,28,2.6,24.3,2.2,21.9C2.2,21.2,2.1,20.6,2,20c-0.5-0.4-0.9-0.8-1.2-1.1c-0.8-1-1-1.9-0.5-2.9
		c0.2-0.4,0.6-0.7,1.1-0.8c-0.2-1.4-0.2-2.6-0.1-3.7c0.2-1.7,0.6-2.9,1.3-3.6C3,7.4,3.7,7.1,4.7,7.1c1,0,2,0.4,3,1.2
		s1.6,1.6,1.9,2.3c0.3,0.7,0.2,1.8-0.1,3.4c-0.3,1.3-0.6,2.6-0.8,3.7c0.2,0,0.4,0.1,0.6,0.2c0.7,0.1,1.5,0.3,2.2,0.5
		c0.1,0,0.2,0,0.4,0c0.1-1.9,0.2-3.1,0.2-3.8c0-1,0.1-2.1,0.3-3.1c0.1-1.2,0.4-2.4,0.8-3.5c0.2-0.9,0.4-1.5,0.7-1.7
		c0.4-0.5,1-0.7,1.8-0.4c0.4,0.1,0.7,0.4,0.8,0.9c0.1,0.4,0,1.2-0.4,2.2c-0.3,0.7-0.5,1.6-0.7,2.6c-0.2,1-0.4,2.6-0.6,4.6
		c-0.1,0.8-0.2,1.7-0.2,2.6l0.2,0c1.3,0,1.9,0.3,1.9,0.9c0,0.6-0.5,1.1-1.4,1.4c-0.3,0.1-0.5,0.2-0.7,0.3c0,0.4,0,0.9,0,1.4
		c0,3.2,0.1,5.5,0.2,6.8c0,0.8,0.1,1.5,0.2,2.2c0.1-0.1,0.3-0.3,0.5-0.4c0.9-0.9,1.5-1.1,1.8-0.7c0.3,0.3,0.1,1-0.6,1.9
		c-0.5,0.6-0.9,1.2-1.4,1.7c0.2,1,0.5,2,0.9,3.1c0.6,1.6,0.7,2.4,0.3,2.6c-0.5,0.2-1.1-0.4-1.8-1.6c-0.3-0.5-0.6-1.2-0.9-2.1
		c0,0,0-0.1,0-0.1c-0.3,0.3-0.6,0.7-0.9,1c-0.9,0.9-1.6,1.4-2.3,1.7c-1,0.4-1.9,0.4-2.9-0.1c-0.3-0.2-0.7-0.5-1-0.8
		c-0.3-0.5-0.7-1-1-1.6C5.3,35,4.9,34.1,4.7,33.2z M8.3,22.2c-0.1,2.6-0.1,4.3,0,5.1c0.1,1.7,0.2,3.3,0.3,4.6c0,0.7,0.1,1.5,0.3,2.5
		c0.1,0.7,0.3,1.1,0.7,1.2c0.3,0.1,1-0.2,1.8-0.9c0.5-0.4,1-0.9,1.5-1.4c0-0.2-0.1-0.3-0.1-0.4c-0.3-1.5-0.5-3.3-0.7-5.6
		c-0.1-1.3-0.2-2.8-0.3-4.5c0-0.3,0-0.5-0.1-0.8c-0.3,0-0.6,0.1-1,0.2C10,22.1,9.1,22.2,8.3,22.2z M18,16.5c0-1.1-0.1-3.4-0.4-6.7
		c0-0.6,0-1.1,0-1.6c-0.1-0.3-0.2-0.5-0.2-0.7c-0.1-0.4,0-0.9,0.3-1.5c0.3-0.6,0.8-1,1.6-1.1c0.6,0,1.6,0.3,3.2,1
		c0.9,0.3,2.5,1.1,4.7,2.3c0.7,0.4,1.5,0.7,2.5,0.9c1,0.3,2,0.4,2.8,0.5c1,0.1,1.8,0.2,2.7,0.4c0.9,0.3,1.6,0.7,2,1.2
		c0.4,0.4,0.5,0.9,0.4,1.5c-0.1,0.5-0.6,1.2-1.4,2c-1.6,1.9-3.2,4-5,6.5c-0.3,0.4-0.5,0.8-0.4,1c0.3,0.3,1,0.2,2.2-0.3
		c2.9-1.2,4.9-1.9,6-2c1,0.1,1.6,0.4,1.9,0.8c0.3,0.4,0.3,1,0.1,1.8c-0.8,2.8-2.6,8-5.6,15.5c-0.3,0.9-0.8,1.7-1.7,2.4
		c-0.3,0.4-0.8,0.7-1.4,0.8c-0.3,0.1-0.6,0.1-0.9,0c-0.4-0.2-0.9-0.6-1.4-1.2c-0.5-0.6-1-1.4-1.4-2.2c-0.3-0.5-0.3-0.9-0.2-1
		c0.1-0.2,0.3-0.1,0.7,0.3c0.5,0.5,1,0.9,1.3,1c0.3,0.1,0.5,0.2,0.7,0.1c0.3,0,0.6-0.4,0.9-1.2c0.6-1.4,1.1-3.9,1.7-7.5
		c0.5-2.9,0.6-4.4,0.5-4.5c-0.2,0-0.7,0.1-1.5,0.5c-1.9,0.8-3.2,1.1-4.1,0.9c-0.7-0.2-1.3-0.5-1.7-1.1c-0.6-0.8-1-1.5-1-2.2
		c-0.1-1.1,0.1-3.4,0.8-6.9c0.3-1.2,0.3-1.8,0.1-2c0,0-0.1-0.1-0.3-0.1c-0.8,0-1.6,0-2.4-0.1c-0.1,0-0.2,0-0.3-0.1
		c0,0.2,0,0.4-0.1,0.7c-0.1,0.3-0.2,1-0.3,1.8c0,0.5-0.1,1.2-0.1,2c0,1.1-0.1,2.5-0.3,4c-0.1,1.1-0.2,2.9-0.4,5.2
		c-0.2,2.3-0.2,4.1-0.1,5.6c0.2,2.6,0.4,4.1,0.7,4.7c0.3,0.6,0.2,1-0.1,1.4c-0.3,0.2-0.7,0-1.2-0.4c-0.3-0.3-0.7-1-1.2-2.3
		c-0.3-0.9-0.7-2.5-1.2-4.9c-0.3-1.9-0.6-3.9-0.7-6.1c-0.1-1.7-0.3-3.3-0.5-4.8C18.1,19.4,18,17.9,18,16.5z"/>
	<path class="st1" d="M75.8,10.9c-1.5,0.6-3.1,0.9-4.7,1c-0.1,0-0.2,0-0.3,0c-0.1,0.2-0.2,0.4-0.2,0.6c-0.3,0.4-0.5,0.9-0.6,1.3
		c-0.2,0.4-0.3,0.8-0.5,1c-0.1,0.2-0.2,0.4-0.3,0.7c-0.3,1.1-0.8,1.5-1.4,1.2c-0.4-0.3-0.4-1.1,0-2.6c0.2-0.7,0.3-1.2,0.5-1.7
		c0-0.1,0-0.3,0.1-0.5c-1.3,0-2.6,0.1-3.8,0.2c-0.9,0-1.7,0-2.4,0c0.1,0,0.2,0,0.3,0.1c0.5,0.2,0.9,0.6,1.2,1.1
		c0.1,0.3,0.4,0.7,0.8,1.2c0.4,0.4,0.6,0.9,0.7,1.3c2.3,1.9,3.9,3.2,5,3.8c1.2,0.7,2.3,1.4,3.4,2.1c1.3,0.8,3.4,2,6.3,3.5
		c1,0.5,2.2,0.8,3.4,0.9c0.9,0,1.3,0.2,1.2,0.6c0,0.4-0.6,0.7-1.8,1c-0.6,0.2-1.3,0.2-2,0.1c-1-0.2-2.1-0.5-3.3-1
		c-2.2-0.9-3.8-1.6-4.8-2.1c-0.9-0.4-1.8-0.9-2.9-1.4c-1.2-0.5-2.6-1.3-4.2-2.3c-0.6-0.3-1.1-0.7-1.6-1c-0.3,0.3-0.7,0.6-1.1,1
		c-0.4,0.3-1.1,0.8-2,1.5c-0.6,0.5-1.8,1.2-3.6,2c-0.9,0.4-1.6,0.8-2.1,1.3c-0.6,0.5-1.3,0.9-2.1,1.2c-1,0.4-1.9,0.3-2.6-0.3
		c-0.4-0.3-0.6-0.8-0.8-1.4c-0.1-0.6-0.3-1-0.6-1.4c-0.3-0.4-0.2-1,0.1-1.9c0.3-0.9,0.9-1.6,1.6-2c0.6-0.3,1.1-0.7,1.4-1.1
		c0.2-0.2,0.7-0.6,1.6-1.3c1.5-1.1,2.5-2,2.9-2.8c0.3-0.6,0.8-1.1,1.6-1.6c-0.3-0.4-0.6-0.9-0.9-1.6c0,0-0.1-0.1-0.1-0.2
		c-0.3,0-0.7,0-1.2-0.1c-1-0.1-2.1-0.4-3.5-0.8c-1.1-0.3-2-0.8-2.9-1.2c-0.9-0.5-1.4-1-1.6-1.7c-0.1-0.6,0.2-1.3,1-2
		c0.8-0.7,1.8-1.2,3.1-1.5c1.4-0.3,2.9,0,4.5,0.8c0.1-0.6,0.3-1.1,0.7-1.4c0.7-0.6,1.4-0.7,2.2-0.4c0.7,0.3,1.4,0.7,2,0.9
		C61.6,4.3,62,5,62.4,6.3c0,0.1,0,0.2,0,0.4c1,0.2,1.8,0.3,2.4,0.4c1.4,0.1,2.6,0.3,3.4,0.5c0.5,0.1,1.1,0.2,1.9,0.3
		c0.1-0.2,0.3-0.5,0.5-0.8c0.3-0.7,0.9-1.6,1.5-2.7c0.6-1.1,1.2-1.7,1.7-2c0.5-0.2,0.9,0,1.4,0.6c0.3,0.4,0.1,1-0.3,2
		c-0.2,0.4-0.4,0.8-0.7,1.1c-0.2,0.3-0.4,0.5-0.6,0.8c-0.2,0.2-0.3,0.4-0.5,0.6c-0.1,0.1-0.2,0.3-0.4,0.5c1.2,0,2.5-0.2,4.1-0.4
		c1-0.1,1.8-0.1,2.5,0c0.9,0.1,1.4,0.4,1.5,0.9c0.1,0.3-0.8,0.9-2.7,1.7C77.5,10.3,76.7,10.6,75.8,10.9z M67.6,32.9
		c1.5,1.6,2.9,2.7,4.1,3.4c0.8,0.5,2,1,3.5,1.6c0.9,0.3,1.7,0.5,2.4,0.6c0.6,0.1,1.4,0,2.1-0.3c0.6-0.2,1-0.1,1,0.1
		c0,0.3-0.1,0.6-0.4,1c-0.4,0.3-0.9,0.6-1.7,0.8c-0.8,0.2-1.8,0.2-3.1,0c-1.2-0.2-2.4-0.5-3.4-0.9c-1-0.4-2.1-0.8-3.2-1.4
		c-1.1-0.5-2.3-1.2-3.4-2.1c0,0.7,0.1,1.5,0.2,2.4c0,1.5-0.3,2.6-0.8,3.2c-0.5,0.5-1.1,0.8-1.8,0.8c-0.3,0-0.7-0.1-0.9-0.3
		c-0.5-0.4-0.9-0.8-1.2-1.3c-0.3-0.4-0.6-0.8-0.7-1.2c-0.1-0.3-0.3-0.6-0.6-1.1c-0.5-0.7-0.6-1.1-0.3-1.4c0.3-0.2,0.6,0,1,0.5
		c0.5,0.5,0.9,0.9,1.4,1.2c0.3,0.2,0.5,0.3,0.6,0.3c0.1,0,0.1-0.5,0-1.4c-0.2-1.2-0.4-2.3-0.6-3.5c-0.6,0.4-1.5,1-2.6,2
		c-0.6,0.5-1.3,1-2.1,1.4c-0.5,0.3-1.1,0.7-1.7,1.3c-0.6,1.2-1.1,1.7-1.7,1.5c-0.3-0.2-0.4-0.6-0.2-1.3c0.2-0.6,0.5-1.2,1-1.7
		c0.1-0.2,0.4-0.6,0.9-1.1c0.7-0.9,1.2-1.4,1.4-1.6c0.4-0.4,0.8-0.8,1-1.2c0.2-0.3,0.4-0.7,0.6-1c0,0-0.1,0-0.1,0
		c-1.6-0.6-2.7-1.2-3.5-1.9c-0.9-0.8-1.2-1.7-1-2.7c0.3-0.9,1.2-1.2,2.9-0.9c1.7,0.2,3.2,0.4,4.4,0.7c0-0.3,0-0.5,0-0.8
		c0-1.9,0.2-3.1,0.5-3.5c0.3-0.3,0.8-0.5,1.5-0.6c0.9,0,1.6,0.3,2.3,1c0.6,0.6,0.7,1.5,0.3,2.6c-0.1,0.3-0.2,1-0.2,2.3
		c0.3,0,0.7,0.1,1,0.1c1.2,0,2.4,0,3.5,0c1.5,0,3.2-0.1,5.2-0.5c0.9-0.1,1.3,0,1.4,0.4c0,0.4-0.3,0.8-0.8,1.1c-1.8,1-4,1.9-6.7,2.5
		c-0.5,0.1-1.1,0.2-1.6,0.3C67.4,32.5,67.5,32.7,67.6,32.9z"/>
	<path class="st1" d="M90.5,10.2C89.9,8.9,90,7.8,90.7,7c1-1.2,2.1-1.8,3.2-1.9c1.2-0.1,2.4,0.2,3.4,1c0.9,0.7,1.5,1.8,1.8,3.2
		c0.6,4,1.1,8.5,1.6,13.4c0.3,4.2,0.6,6.3,0.8,6.3c0.2-0.1,1.2-2.9,3-8.5c1.4-4.2,3-7.6,4.9-10.4c0.7-1,1.6-1.7,2.5-2
		c0.6-0.1,1.1-0.1,1.6,0.1c0.7,0.3,1.1,0.9,1.2,1.6c0.1,0.8-0.1,1.6-0.6,2.4c-2.7,4.2-4.7,8.2-6,11.9c-1.6,4.7-2.7,8.2-3.4,10.5
		c-0.9,2.1-2.4,3.2-4.5,3.3c-1.7,0.1-2.9-0.7-3.5-2.3C95,30,93.7,25,93,20.7C92.3,16.3,91.4,12.8,90.5,10.2z"/>
	<path class="st1" d="M118.2,19.4c0.7-2.5,1.7-3.8,2.8-4c1-0.1,2.1,0.2,3.3,1.1c1.7,1.2,2,3.2,1.2,5.9c-1.7,3.7-2.9,6.4-3.7,8.2
		c-0.7,1.5-1.3,2.8-1.7,4c-0.3,1.1-0.5,2.1-0.6,3c-0.2,1.1-0.8,1.6-1.8,1.5c-0.7-0.1-1.1-0.8-1-1.8c0.1-1,0.1-2.2,0.2-3.6
		c0-1.2,0-2.2,0-3c0.1-1.3,0.2-2.8,0.3-4.6C117.5,24,117.8,21.7,118.2,19.4z M127.4,5.3c0.6,0.8,1,1.9,1.3,3.4
		c0.1,1.2-0.4,2.2-1.5,2.9c-0.9,0.6-2.1,0.9-3.5,1c-1.2,0.2-2.4-0.1-3.4-0.8c-0.7-0.6-1.1-1.6-1.2-3c0-0.9,0.3-1.7,1-2.3
		c0.4-0.4,0.9-1,1.4-1.6c0.7-0.8,1.8-1.2,3.1-1C125.8,3.9,126.7,4.4,127.4,5.3z"/>
	<path class="st1" d="M144.8,16.3c1,0,1.8,0.1,2.5,0.3c0.2-2.7,0.6-5.5,1.2-8.5c0.4-1.8,0.9-2.8,1.5-3.1c1-0.4,2.5-0.1,4.4,1
		c1.8,1.1,2.7,2.5,2.7,4.1c-0.1,0.5-0.8,2.5-2.1,6.2c-0.9,2.5-1.6,5.5-2.2,9.1c-0.8,5.4-1.2,9-1.2,10.7c0.1,1.7-0.4,2.7-1.4,3
		c-0.9,0.3-1.7-0.4-2.4-2c-0.2-0.5-0.3-1.1-0.4-1.6c-1.9,1.8-3.9,2.7-5.9,2.7c-3,0-5.4-0.8-7-2.5c-1.5-1.5-2.3-3.5-2.3-6
		c0-4,1.4-7.4,4.2-10.2C138.7,17.5,141.5,16.4,144.8,16.3z M139.9,23.9c-1.6,1.6-2.4,3.5-2.4,5.9c0,1.1,0.3,1.9,1,2.5
		c0.8,0.7,1.8,1,3.1,1c1.7,0,3.2-0.6,4.4-2c0.3-0.5,0.6-0.9,0.9-1.3c0-1.9,0-3.8,0-5.9c-0.5-0.4-0.8-0.9-1-1.5
		c-0.1-0.2-0.3-0.3-0.5-0.5c-0.3-0.2-0.6-0.3-0.9-0.3C142.7,22,141.2,22.6,139.9,23.9z"/>
	<path class="st1" d="M181.1,26.4c0,2-0.4,3.5-1.3,4.3c-0.8,0.7-2.5,1.1-5.1,1.1c-1.5,0-3.4-0.3-5.7-1c-1.5-0.4-2.8-0.9-4.1-1.4
		c0.3,1.9,0.9,3.2,1.9,3.8c1.3,0.9,3.4,1.3,6.1,1.3c1.8,0,3,0.3,3.4,0.8c0.6,0.7,0.7,1.3,0.3,1.8c-0.4,0.6-1.5,1-3.3,1
		c-4.2,0-7.3-0.7-9.4-1.9c-3.3-2.1-4.9-5.2-4.9-9.3c0-2.8,1.2-5.2,3.6-7.4c2.2-2,4.8-3,8-3c3.5,0,6.3,1.3,8.2,3.8
		C180.3,22.3,181.1,24.3,181.1,26.4z M165.2,25c4.8,1.7,7.5,2.5,8,2.5c0.7,0,1.1-0.2,1.4-0.5c0.2-0.2,0.3-0.7,0.3-1.5
		c0-1-0.5-2.1-1.4-3.3c-0.7-1-1.7-1.5-2.8-1.5c-1.7,0-3.2,0.8-4.3,2.3C165.8,23.7,165.4,24.4,165.2,25L165.2,25z"/>
	<path class="st1" d="M198.5,36.8c-1.7,1.1-3.7,1.6-5.9,1.6c-1.9,0-3.6-0.6-4.9-1.7c-1.3-1.1-2-2.8-2-5c0-1.3,0.2-2.5,0.5-3.6
		c0.3-1.1,0.7-2.3,1.3-3.6c0.4-1,0.9-1.5,1.6-1.7c-0.2-0.2-0.4-0.5-0.5-0.8c-0.3-0.5,0.2-1.4,1.4-2.6c0.9-1,1.8-1.7,2.7-2.2
		c1.1-0.6,2.6-1,4.4-1c2.6,0,4.7,0.8,6.3,2.3c1.4,1.3,2.1,3.1,2.1,5.4c0,2.3-0.6,4.6-1.8,6.9C202.2,33.6,200.5,35.6,198.5,36.8z
		 M197.9,29.4c0.9-2,1.4-3.8,1.4-5.5c0-1.3-0.2-2.2-0.6-2.7c-0.5-0.6-1.1-0.8-1.8-0.8s-1.8,0.7-3.2,2c-0.9,0.6-1.7,1-2.4,1
		c0.3,0.4,0.3,1-0.1,1.8c-0.8,2.3-1.2,4.1-1.2,5.4c0,1,0.3,1.8,0.9,2.2c0.6,0.5,1.3,0.7,2.1,0.7c0.7,0,1.5-0.2,2.2-0.7
		C196.1,32.4,197,31.2,197.9,29.4z"/>
</g>
</svg>
